<svg width="1415" height="4848" viewBox="0 0 1415 4848" fill="none" xmlns="http://www.w3.org/2000/svg">
<path d="M1268.57 219.339L1268.78 219.896L1269.3 219.587L1436.84 118.278L1337.53 287.018L1337.23 287.534L1337.79 287.741L1521.46 355.569L1327.62 383.136L1327.03 383.22L1327.21 383.788L1388.7 569.676L1246.29 435.311L1245.85 434.9L1245.53 435.401L1138.53 599.371L1154.79 404.255L1154.84 403.659L1154.24 403.716L959.331 422.294L1122.02 313.354L1122.52 313.021L1122.1 312.591L986.049 171.787L1172.66 231.058L1173.23 231.239L1173.3 230.647L1198.56 36.4872L1268.57 219.339Z" stroke="#BCEC30"/>
<path d="M1342.2 1548.3L1342.26 1548.52L1342.47 1548.62L1365.39 1559.68L1340.79 1566.2L1340.57 1566.26L1340.47 1566.47L1329.41 1589.38L1322.89 1564.79L1322.83 1564.57L1322.62 1564.47L1299.7 1553.41L1324.3 1546.89L1324.52 1546.83L1324.62 1546.62L1335.68 1523.7L1342.2 1548.3Z" stroke="#BCEC30"/>
<path d="M21.2177 706.404L21.277 706.625L21.4843 706.725L31.2511 711.436L20.7698 714.218L20.5473 714.277L20.4471 714.484L15.735 724.251L12.9548 713.77L12.8955 713.547L12.6893 713.447L2.92158 708.735L13.4037 705.955L13.6252 705.895L13.7253 705.689L18.4365 695.921L21.2177 706.404Z" stroke="#BCEC30"/>
<path d="M52.3237 768.256L52.383 768.478L52.5903 768.577L70.5078 777.222L51.2795 782.324L51.057 782.383L50.9568 782.59L42.3126 800.508L37.2106 781.279L37.1523 781.057L36.9451 780.957L19.0265 772.312L38.2559 767.21L38.4783 767.152L38.5775 766.945L47.2218 749.026L52.3237 768.256Z" stroke="#BCEC30"/>
<path d="M1276.41 1501.6L1276.47 1501.82L1276.67 1501.93L1287.61 1507.59L1275.62 1510.41L1275.39 1510.47L1275.29 1510.67L1269.62 1521.61L1266.8 1509.62L1266.75 1509.39L1266.54 1509.29L1255.6 1503.62L1267.6 1500.8L1267.82 1500.74L1267.93 1500.54L1273.6 1489.6L1276.41 1501.6Z" stroke="#BCEC30"/>
<path d="M1337.35 4784.36L1337.43 4784.57L1337.65 4784.65L1361.56 4793.5L1337.65 4802.35L1337.43 4802.43L1337.35 4802.64L1328.5 4826.56L1319.65 4802.64L1319.57 4802.43L1319.36 4802.35L1295.44 4793.5L1319.36 4784.65L1319.57 4784.57L1319.65 4784.36L1328.5 4760.44L1337.35 4784.36Z" stroke="#BCEC30"/>
<path d="M1249.57 4822.14L1249.65 4822.35L1249.86 4822.43L1263.56 4827.5L1249.86 4832.57L1249.65 4832.65L1249.57 4832.86L1244.5 4846.56L1239.43 4832.86L1239.35 4832.65L1239.14 4832.57L1225.44 4827.5L1239.14 4822.43L1239.35 4822.35L1239.43 4822.14L1244.5 4808.44L1249.57 4822.14Z" stroke="#BCEC30"/>
</svg>
